<svg width="400" height="400" viewBox="0 0 400 400" fill="none" xmlns="http://www.w3.org/2000/svg">
  <rect width="400" height="400" rx="80" fill="#E0E7FF"/>
  <rect x="102" y="122" width="196" height="176" rx="40" fill="#CBD5E1"/>
  <rect x="132" y="154" width="136" height="92" rx="28" fill="#F8FAFC"/>
  <circle cx="161" cy="198" r="18" fill="#3B82F6"/>
  <circle cx="239" cy="198" r="18" fill="#3B82F6"/>
  <path d="M167 259C184 272 215 272 233 259" stroke="#334155" stroke-width="12" stroke-linecap="round"/>
  <rect x="182" y="83" width="36" height="51" rx="18" fill="#94A3B8"/>
  <circle cx="200" cy="75" r="20" fill="#FBBF24"/>
  <rect x="75" y="178" width="42" height="84" rx="21" fill="#94A3B8"/>
  <rect x="283" y="178" width="42" height="84" rx="21" fill="#94A3B8"/>
  <path d="M295 153C320 129 352 134 360 160" stroke="#22C55E" stroke-width="10" stroke-linecap="round"/>
  <circle cx="354" cy="144" r="16" fill="#F472B6"/>
  <circle cx="374" cy="160" r="16" fill="#F472B6"/>
  <circle cx="354" cy="176" r="16" fill="#F472B6"/>
  <circle cx="334" cy="160" r="16" fill="#F472B6"/>
  <circle cx="354" cy="160" r="13" fill="#FDE68A"/>
</svg>
