<svg width="400" height="400" viewBox="0 0 400 400" fill="none" xmlns="http://www.w3.org/2000/svg">
  <rect width="400" height="400" rx="80" fill="#1E1B4B"/>
  <circle cx="86" cy="88" r="6" fill="#FFFFFF"/>
  <circle cx="312" cy="82" r="5" fill="#FFFFFF"/>
  <circle cx="330" cy="282" r="7" fill="#FFFFFF"/>
  <circle cx="118" cy="300" r="4" fill="#FFFFFF"/>
  <path d="M310 132L319 151L339 160L319 169L310 188L301 169L281 160L301 151L310 132Z" fill="#FDE68A"/>
  <circle cx="200" cy="204" r="84" fill="#F59E0B"/>
  <path d="M127 186C104 176 91 169 93 160C97 141 173 145 252 170C331 195 388 232 382 251C378 265 334 266 278 254" stroke="#FDE68A" stroke-width="22" stroke-linecap="round"/>
  <path d="M119 220C83 207 57 193 61 180C67 157 157 163 262 196C332 218 387 247 379 267C373 282 324 281 267 267" stroke="#FBBF24" stroke-width="14" stroke-linecap="round"/>
  <circle cx="174" cy="194" r="10" fill="#7C2D12"/>
  <circle cx="226" cy="194" r="10" fill="#7C2D12"/>
  <path d="M174 230C192 246 212 246 229 230" stroke="#7C2D12" stroke-width="10" stroke-linecap="round"/>
</svg>
